HIERARCHY
ROOT Hips
{
  OFFSET 74.0196 97.4445 -31.1285
  CHANNELS 6 Xposition Yposition Zposition Zrotation Xrotation Yrotation
  JOINT RightUpLeg
  {
    OFFSET -8.9458 -8.66707 0.101652
    CHANNELS 3 Zrotation Xrotation Yrotation
    JOINT RightLeg
    {
      OFFSET -2.94875e-013 -44.4227 1.3727
      CHANNELS 3 Zrotation Xrotation Yrotation
      JOINT RightFoot
      {
        OFFSET 0.253549 -42.0924 -1.46059
        CHANNELS 3 Zrotation Xrotation Yrotation
        JOINT RightToes
        {
          OFFSET 0.04 -4.41509 8.4991
          CHANNELS 3 Zrotation Xrotation Yrotation
          End Site
          {
            OFFSET -0.08 -0.137448 9.77979
          }
        }
      }
    }
  }
  JOINT Spine
  {
    OFFSET -5.68434e-014 11.8905 -6.39488e-014
    CHANNELS 3 Zrotation Xrotation Yrotation
    JOINT Spine1
    {
      OFFSET 5.68434e-014 25.6574 0.127663
      CHANNELS 3 Zrotation Xrotation Yrotation
      JOINT HEad
      {
        OFFSET 4.26326e-014 8.73416 0.011341
        CHANNELS 3 Zrotation Xrotation Yrotation
        End Site
        {
          OFFSET -0.29 12.7742 2.51395
        }
      }
      JOINT LeftShoulder1
      {
        OFFSET 8.99 -0.362252 -0.22
        CHANNELS 3 Zrotation Xrotation Yrotation
        JOINT LeftArm
        {
          OFFSET 10.2827 -0.00338 0.322123
          CHANNELS 3 Zrotation Xrotation Yrotation
          JOINT LeftForeArm
          {
            OFFSET 32.7669 0.099144 -1.42434
            CHANNELS 3 Zrotation Xrotation Yrotation
            JOINT LeftHand
            {
              OFFSET 27.5643 0.085362 1.02216
              CHANNELS 3 Zrotation Xrotation Yrotation
              End Site
              {
                OFFSET 16.7443 -0.6 1.50291
              }
            }
          }
        }
      }
      JOINT RightShoulder
      {
        OFFSET -8.99 -0.362252 -0.22
        CHANNELS 3 Zrotation Xrotation Yrotation
        JOINT RightArm
        {
          OFFSET -10.2827 -0.00338 0.322123
          CHANNELS 3 Zrotation Xrotation Yrotation
          JOINT RightForeArm
          {
            OFFSET -32.8971 0.099144 -1.42434
            CHANNELS 3 Zrotation Xrotation Yrotation
            JOINT RightHand
            {
              OFFSET -27.4921 0.085362 1.02216
              CHANNELS 3 Zrotation Xrotation Yrotation
              End Site
              {
                OFFSET -16.6312 -0.6 1.50291
              }
            }
          }
        }
      }
    }
  }
  JOINT LeftUpLeg
  {
    OFFSET 8.9458 -8.66707 0.101652
    CHANNELS 3 Zrotation Xrotation Yrotation
    JOINT LeftLeg
    {
      OFFSET 7.10543e-014 -44.4227 1.3727
      CHANNELS 3 Zrotation Xrotation Yrotation
      JOINT LeftFoot
      {
        OFFSET -0.253549 -42.0924 -1.46059
        CHANNELS 3 Zrotation Xrotation Yrotation
        JOINT LeftToes
        {
          OFFSET -0.04 -4.41509 8.4991
          CHANNELS 3 Zrotation Xrotation Yrotation
          End Site
          {
            OFFSET 0.08 -0.047448 9.77979
          }
        }
      }
    }
  }
}
MOTION
Frames:	21
Frame Time:	0.0166667
9.23348 83.7399 56.4498 0.694818 -1.03092 144.474 -26.4615 -9.1309 2.76365 12.2375 58.4139 -19.7026 5.12232 2.26713 -0.550567 -24.2901 -33.078 -15.5328 -2.57565 3.47923 3.40584 0.347782 6.12618 7.27003 -9.51785 -2.19371 30.4031 -5.03302e-021 -3.88251e-019 1.21329e-020 3.47327 -14.955 -29.1533 -5.09604 -10.5144 -12.9473 19.0435 7.08287 -13.1919 23.7203 7.51922 26.5065 55.5702 -14.3425 35.1463 -15.3379 29.1164 140.941 -2.45968 10.6877 -53.9785 16.268 -41.0638 4.96652 16.3173 59.0178 -26.1249 -15.1328 8.22615 2.03618 37.2926 -54.1809 -6.5158 
8.06824 83.7753 56.796 0.795131 -1.29301 142.331 -27.9782 -9.46746 2.24074 14.8475 55.8554 -21.2803 4.66218 -2.34466 -0.353867 -20.999 -28.9015 -16.6161 -2.35305 3.41969 3.78234 0.475752 6.07759 7.99443 -10.0877 -1.05173 29.6313 -5.03302e-021 -3.88251e-019 1.21329e-020 -0.272274 -16.0016 -28.9466 -4.2854 -15.1387 -14.5094 18.9448 6.55178 -16.5274 23.2798 7.38636 26.4496 56.1054 -15.26 34.7824 -14.9057 31.2183 139.924 -3.64818 11.189 -52.6917 15.8046 -40.6555 4.50444 16.4087 58.7707 -23.0199 -13.0177 7.76756 1.69095 37.5957 -53.289 -5.07889 
6.99736 84.16 57.238 0.633621 -1.73027 139.904 -29.4199 -9.56099 1.74065 17.0732 52.3833 -22.009 5.60552 -8.93114 -0.117288 -15.6474 -22.8669 -15.3253 -2.3422 3.29305 4.44633 0.442016 5.87346 9.22655 -10.3068 0.145077 28.5865 -5.03302e-021 -3.88251e-019 1.21329e-020 -6.46861 -19.0539 -27.2498 -5.32888 -19.4012 -22.0809 17.9815 6.1777 -20.0605 22.2391 7.0528 26.2275 57.1169 -16.3762 35.2493 -14.3068 33.8908 138.612 -5.37535 11.8721 -51.0506 15.4564 -40.1401 3.92659 16.0736 57.8054 -19.9016 -11.9251 7.80681 1.54663 37.2289 -51.904 -4.05849 
6.07188 84.8446 57.848 0.216985 -2.26555 137.566 -30.5081 -9.29647 1.46492 18.1502 48.2052 -20.934 8.02962 -15.5474 0.339998 -10.4913 -16.7798 -12.4148 -2.66994 3.16787 5.26427 0.254166 5.63344 10.6843 -10.2021 1.1334 27.4997 -5.03302e-021 -3.88251e-019 1.21329e-020 -13.7853 -25.033 -24.1206 -10.5077 -19.2659 -34.8422 15.7945 6.31225 -22.5524 20.8925 6.58851 25.7711 58.392 -17.1982 36.1143 -13.7129 36.1404 137.543 -7.03381 12.4763 -49.5072 15.1408 -39.5989 3.26027 15.6078 56.0519 -17.2381 -11.7959 8.46162 1.59214 36.3499 -50.2083 -3.4272 
5.29741 85.8169 58.6636 -0.353953 -2.87667 135.693 -30.9284 -8.70915 1.56019 17.8603 43.585 -17.9289 10.772 -20.2337 0.961833 -7.11999 -12.3557 -9.50597 -3.211 3.08042 6.05746 -0.0334581 5.45239 12.0824 -9.87982 1.77241 26.4869 -5.03302e-021 -3.88251e-019 1.21329e-020 -20.6958 -34.0595 -19.9524 -17.6976 -11.1744 -48.0934 14.0484 6.62008 -23.4739 19.4806 6.06465 25.0654 59.7543 -17.5354 37.0352 -13.3625 37.4346 137.107 -8.18445 12.8678 -48.4631 14.81 -39.0281 2.51424 15.2099 53.3798 -15.3244 -12.3439 9.66798 1.7917 34.9541 -48.1664 -3.17304 
4.65385 87.0498 59.7047 -0.894432 -3.63465 134.632 -30.3695 -7.97637 2.0288 16.3928 39.1479 -13.67 12.6204 -22.4292 1.41358 -5.64487 -10.2238 -7.5899 -3.47741 3.04801 6.60962 -0.317675 5.38667 13.1889 -9.46926 2.03435 25.5395 -5.03302e-021 -3.88251e-019 1.21329e-020 -26.0568 -45.2948 -15.0231 -23.1182 3.57937 -57.7473 14.513 6.50814 -23.4431 18.1517 5.53812 24.1552 61.0805 -17.4324 37.8159 -13.3888 37.6706 137.421 -8.62788 13.0167 -48.1143 14.5618 -38.4371 1.73091 14.9505 49.7228 -14.3861 -13.2566 11.2048 2.09839 32.9092 -45.602 -3.33778 
4.11316 88.5526 60.8799 -1.36183 -4.4894 134.477 -28.8887 -7.15673 2.76267 13.9476 35.3863 -8.91213 13.3226 -22.6321 1.53185 -5.39385 -9.82496 -6.6329 -3.47751 3.08003 6.92833 -0.585996 5.47365 13.8648 -9.06489 1.96106 24.5584 -5.03302e-021 -3.88251e-019 1.21329e-020 -29.0419 -57.4737 -8.96919 -26.0816 20.8642 -64.1984 17.243 5.87938 -23.0882 16.9717 5.04683 23.1263 62.3108 -17.0682 38.3892 -13.739 37.0329 138.329 -8.40217 12.9496 -48.4008 14.2967 -37.6734 0.949082 14.7242 44.9945 -14.3532 -14.3329 12.7772 2.46367 30.1006 -42.3003 -3.93029 
3.67061 90.1963 62.1699 -1.71655 -5.37371 135.253 -26.6689 -6.37624 3.4953 10.8748 33.0037 -4.37842 13.3846 -21.8692 1.45065 -5.67233 -10.2305 -6.05652 -3.18598 3.17758 7.01299 -0.851531 5.72608 14.064 -8.70307 1.62552 23.417 -5.03302e-021 -3.88251e-019 1.21329e-020 -28.2812 -68.6688 -0.377034 -27.2725 36.7519 -69.4556 20.9894 5.03585 -22.6062 15.956 4.61175 22.0746 63.4493 -16.6672 38.7633 -14.2466 35.8548 139.552 -7.71886 12.7266 -49.0922 14.0566 -36.7582 0.265622 14.4049 39.4364 -15.2584 -15.5386 14.0321 2.84335 26.5841 -38.1354 -4.82365 
3.32685 91.8139 63.5533 -1.9589 -6.1727 136.863 -24.0764 -5.7411 3.96485 7.68878 32.4197 -0.621944 13.3207 -20.9017 1.32972 -6.09361 -10.862 -5.3473 -2.68699 3.33101 6.90411 -1.15511 6.13486 13.8282 -8.38105 1.12152 22.0241 -5.03302e-021 -3.88251e-019 1.21329e-020 -25.999 -74.2862 8.40383 -25.652 46.1529 -76.25 24.4681 4.325 -21.9198 15.0989 4.24166 21.0801 64.5466 -16.4281 38.9688 -14.7518 34.502 140.851 -6.85473 12.4293 -49.9301 13.8465 -35.7558 -0.215395 13.9157 33.5003 -17.0698 -16.9187 14.6755 3.1992 22.656 -33.2451 -5.77596 
3.07609 93.2551 64.9967 -2.11767 -6.7703 139.1 -21.5534 -5.30802 4.02742 5.00928 33.5781 1.9885 13.2734 -19.8327 1.20057 -6.71644 -11.8242 -4.41194 -2.11892 3.52609 6.66097 -1.52763 6.67014 13.274 -8.0935 0.566494 20.3629 -5.03302e-021 -3.88251e-019 1.21329e-020 -33.4405 -71.9405 5.99684 -20.7971 46.3938 -85.2396 26.9331 3.89541 -21.2141 14.3879 3.93749 20.1984 65.6685 -16.4771 39.0319 -15.1671 33.2787 142.093 -6.04047 12.1365 -50.7277 13.5967 -34.7674 -0.433667 13.3165 27.8179 -19.6109 -18.4878 14.5676 3.49339 18.792 -28.1532 -6.60126 
2.90319 94.3993 66.486 -2.22857 -7.10726 141.693 -19.4391 -5.09935 3.66582 3.32886 36.059 3.3293 13.1244 -18.2124 1.00026 -7.91956 -13.733 -3.50515 -1.60238 3.76072 6.32839 -1.96016 7.2881 12.5692 -7.85579 0.090126 18.5003 -5.03302e-021 -3.88251e-019 1.21329e-020 -41.4756 -69.1063 2.14918 -18.348 45.629 -90.8226 27.8386 3.40467 -22.2914 13.8101 3.69656 19.465 66.8528 -16.8477 38.9782 -15.4776 32.3665 143.228 -5.39708 11.8975 -51.3908 13.218 -34.0244 -0.423492 12.8135 23.2875 -22.5556 -20.1213 13.6763 3.66539 15.4712 -23.6014 -7.29018 
2.78506 95.1765 68.0204 -2.33849 -7.17693 144.329 -17.8976 -5.0611 2.95851 2.77417 39.1825 3.58409 12.8208 -15.4843 0.67197 -10.0406 -17.1072 -3.00187 -1.2892 4.045 5.95537 -2.41652 7.93989 11.896 -7.69947 -0.200006 16.5683 -5.03302e-021 -3.88251e-019 1.21329e-020 -48.5945 -65.9839 -1.69484 -18.3691 44.741 -93.2982 27.2426 2.91308 -24.8482 13.3569 3.51481 18.8984 68.0784 -17.4815 38.8511 -15.7089 31.8086 144.233 -4.93698 11.7224 -51.8898 12.6385 -33.8783 -0.352079 12.6736 21.0186 -25.4462 -21.471 11.9724 3.61322 12.9795 -20.121 -7.89171 
2.70315 95.5992 69.5747 -2.52806 -6.99429 146.669 -16.9562 -5.03582 2.06243 3.04429 42.1173 3.24442 12.5395 -11.4544 0.225461 -13.0765 -21.7731 -3.26057 -1.43427 4.38967 5.64531 -2.86594 8.58265 11.4061 -7.64959 -0.258625 14.725 -5.03302e-021 -3.88251e-019 1.21329e-020 -54.2968 -62.7339 -4.98951 -19.9202 44.0312 -93.8469 25.5745 2.62187 -28.0001 13.0303 3.38776 18.495 69.2636 -18.2446 38.7222 -15.8952 31.536 145.072 -4.61114 11.5949 -52.2276 11.8242 -34.4941 -0.475861 13.101 21.7144 -27.7209 -22.1157 9.56532 3.27571 11.3408 -17.7989 -8.33999 
2.63827 95.6696 71.1307 -2.77853 -6.63812 148.497 -16.416 -4.9133 1.15034 3.59303 44.3679 2.91696 12.5165 -6.61002 -0.280743 -16.7167 -26.9124 -4.48828 -2.00417 4.78466 5.45229 -3.25546 9.17874 11.1758 -7.70638 -0.123523 13.1113 -5.03302e-021 -3.88251e-019 1.21329e-020 -58.6211 -59.4811 -7.66164 -21.7057 43.4718 -93.8618 23.5673 2.61459 -30.7871 12.84 3.30924 18.2248 70.3072 -18.9634 38.6824 -16.0615 31.4305 145.701 -4.36861 11.4964 -52.4213 10.9262 -35.7686 -0.969486 14.1651 25.3043 -29.0124 -21.8744 6.83576 2.73281 10.4409 -16.4791 -8.51443 
2.57214 95.4039 72.6532 -3.00556 -6.19919 149.734 -16.0208 -4.59723 0.384898 3.95255 45.6858 2.9901 12.7907 -1.78955 -0.792619 -20.681 -31.7959 -6.65361 -2.79476 5.18087 5.3931 -3.536 9.69847 11.1888 -7.84493 0.0942512 11.8233 -5.03302e-021 -3.88251e-019 1.21329e-020 -61.7799 -56.3617 -9.79361 -22.6229 43.0082 -94.4714 21.9927 2.75393 -32.6079 12.7909 3.27104 18.0426 71.1449 -19.4856 38.8223 -16.2223 31.4038 146.081 -4.20107 11.4255 -52.4882 10.1801 -37.2583 -1.83092 15.7351 30.8218 -29.1923 -20.939 4.49829 2.19737 10.2115 -16.0995 -8.43741 
2.4834 94.8144 74.0994 -3.09258 -5.7597 150.436 -15.5757 -4.02282 -0.121542 3.96451 46.0629 3.43533 13.1231 2.15899 -1.23587 -25.0654 -36.3426 -9.67756 -3.50343 5.50676 5.44384 -3.66609 10.1209 11.35 -8.03025 0.24678 10.9057 -5.03302e-021 -3.88251e-019 1.21329e-020 -63.9933 -53.5323 -11.4809 -22.1222 42.6067 -96.2643 21.3448 2.83501 -33.3128 12.8716 3.26419 17.9109 71.7846 -19.7415 39.2091 -16.3886 31.4497 146.209 -4.15184 11.4021 -52.4386 9.85435 -38.5272 -2.87781 17.5334 37.1481 -28.4439 -19.661 3.19944 1.84279 10.6575 -16.7333 -8.28943 
2.34833 93.9199 75.4396 -2.94779 -5.38881 150.752 -14.9871 -3.18194 -0.346262 3.73761 45.695 3.94984 13.1079 4.59088 -1.49582 -30.3805 -40.8768 -13.7313 -3.86358 5.70961 5.54432 -3.61599 10.4375 11.5292 -8.2324 0.196911 10.3576 -5.03302e-021 -3.88251e-019 1.21329e-020 -65.4481 -51.1297 -12.7937 -20.2415 42.1856 -99.2803 21.7209 2.75942 -33.0368 13.0537 3.2812 17.8168 72.2942 -19.7673 39.8632 -16.5682 31.64 146.12 -4.28687 11.4553 -52.2755 10.1493 -39.3168 -3.84589 19.2931 43.4029 -27.2632 -18.404 3.09244 1.70418 11.6744 -18.2474 -8.17469 
2.14598 92.7739 76.6627 -2.53865 -5.13709 150.874 -14.24 -2.12898 -0.36081 3.4633 44.8976 4.23848 12.3841 5.16112 -1.47532 -36.9629 -45.3286 -19.0289 -3.74794 5.78117 5.61798 -3.3724 10.6506 11.6154 -8.43042 -0.1405 10.1404 -5.03302e-021 -3.88251e-019 1.21329e-020 -66.3118 -49.2176 -13.7843 -17.4388 41.624 -103.151 22.894 2.56351 -32.0462 13.2965 3.31573 17.7656 72.7635 -19.6759 40.7434 -16.7582 32.0743 145.882 -4.65174 11.6034 -51.9983 11.0803 -39.5126 -4.5251 20.902 48.9456 -26.3228 -17.4836 3.67308 1.70097 12.9015 -20.005 -7.89711 
1.86509 91.4763 77.768 -1.89517 -5.02918 150.977 -13.3664 -0.961854 -0.287529 3.2982 43.9767 4.14209 10.8184 3.89883 -1.18865 -43.763 -48.8155 -24.7926 -3.20179 5.74956 5.60463 -2.94371 10.767 11.5539 -8.60552 -0.775332 10.184 -5.03302e-021 -3.88251e-019 1.21329e-020 -66.7527 -47.7641 -14.5043 -14.3659 40.8525 -107.29 24.4627 2.34185 -30.6861 13.551 3.35981 17.7604 73.2656 -19.5945 41.7477 -16.9373 32.8168 145.574 -5.24331 11.8416 -51.6049 12.4611 -39.1041 -4.83664 22.369 53.3213 -26.136 -17.053 4.0658 1.71355 13.8975 -21.1253 -6.99828 
1.5089 90.1524 78.758 -1.10347 -5.05625 151.164 -12.442 0.194802 -0.230234 3.34834 43.1409 3.60778 8.55 1.231 -0.778126 -48.3141 -50.5262 -28.9631 -2.41798 5.65514 5.49318 -2.365 10.7939 11.3505 -8.7331 -1.64386 10.3977 -5.03302e-021 -3.88251e-019 1.21329e-020 -66.9446 -46.6676 -15.0185 -11.6359 39.9259 -111.099 26.0029 2.16234 -29.3439 13.7657 3.40199 17.7851 73.8317 -19.6041 42.7396 -17.0694 33.8474 145.264 -6.0076 12.1424 -51.0983 14.0106 -38.2005 -4.81039 23.6432 56.2935 -26.7298 -17.0421 3.52589 1.63547 14.4314 -21.0783 -5.0438 
1.09364 88.9361 79.6279 -0.299091 -5.16865 151.461 -11.5945 1.22874 -0.221287 3.66141 42.4528 2.65453 5.92038 -2.12063 -0.422617 -49.2837 -50.5811 -30.3087 -1.66744 5.53645 5.32649 -1.713 10.7425 11.047 -8.78223 -2.63241 10.6844 -5.03302e-021 -3.88251e-019 1.21329e-020 -67.0484 -45.815 -15.406 -9.65621 39.0076 -114.141 27.1805 2.03512 -28.3738 13.9008 3.43029 17.8107 74.4381 -19.7116 43.584 -17.1216 35.0462 144.998 -6.85527 12.4648 -50.5019 15.4709 -37.0176 -4.51403 24.5176 57.882 -27.6706 -17.284 1.77777 1.40649 14.4875 -19.9209 -2.00103 
